<mxfile host="app.diagrams.net" modified="2023-09-19T09:43:08.902Z" agent="Mozilla/5.0 (Windows NT 10.0; Win64; x64) AppleWebKit/537.36 (KHTML, like Gecko) Chrome/112.0.0.0 Safari/537.36 Edg/112.0.1722.58" etag="nodcrN-ozKaBRpQLqRlX" version="21.7.5" type="device">
  <diagram name="Page-1" id="Q7clK-y5OEULukH3EvDs">
    <mxGraphModel dx="662" dy="617" grid="1" gridSize="10" guides="1" tooltips="1" connect="1" arrows="1" fold="1" page="1" pageScale="1" pageWidth="850" pageHeight="1100" math="0" shadow="0">
      <root>
        <mxCell id="0" />
        <mxCell id="1" parent="0" />
        <mxCell id="LzdCk226pAoBaQE-RJNd-1" value="" style="ellipse;whiteSpace=wrap;html=1;aspect=fixed;strokeColor=#3333FF;fillColor=#0000FF;" vertex="1" parent="1">
          <mxGeometry x="430" y="180" width="20" height="20" as="geometry" />
        </mxCell>
        <mxCell id="LzdCk226pAoBaQE-RJNd-3" value="" style="endArrow=none;html=1;rounded=0;entryX=0;entryY=1;entryDx=0;entryDy=0;exitX=1;exitY=0;exitDx=0;exitDy=0;" edge="1" parent="1" source="LzdCk226pAoBaQE-RJNd-8" target="LzdCk226pAoBaQE-RJNd-1">
          <mxGeometry width="50" height="50" relative="1" as="geometry">
            <mxPoint x="277" y="273" as="sourcePoint" />
            <mxPoint x="450" y="340" as="targetPoint" />
          </mxGeometry>
        </mxCell>
        <mxCell id="LzdCk226pAoBaQE-RJNd-4" value="" style="endArrow=none;html=1;rounded=0;entryX=1;entryY=1;entryDx=0;entryDy=0;exitX=0;exitY=0;exitDx=0;exitDy=0;" edge="1" parent="1" source="LzdCk226pAoBaQE-RJNd-6" target="LzdCk226pAoBaQE-RJNd-1">
          <mxGeometry width="50" height="50" relative="1" as="geometry">
            <mxPoint x="600" y="280" as="sourcePoint" />
            <mxPoint x="443" y="207" as="targetPoint" />
          </mxGeometry>
        </mxCell>
        <mxCell id="LzdCk226pAoBaQE-RJNd-6" value="" style="ellipse;whiteSpace=wrap;html=1;aspect=fixed;strokeColor=#3333FF;fillColor=#0000FF;" vertex="1" parent="1">
          <mxGeometry x="600" y="270" width="20" height="20" as="geometry" />
        </mxCell>
        <mxCell id="LzdCk226pAoBaQE-RJNd-8" value="" style="ellipse;whiteSpace=wrap;html=1;aspect=fixed;strokeColor=#3333FF;fillColor=#0000FF;" vertex="1" parent="1">
          <mxGeometry x="272" y="270" width="20" height="20" as="geometry" />
        </mxCell>
        <mxCell id="LzdCk226pAoBaQE-RJNd-9" value="" style="endArrow=none;html=1;rounded=0;entryX=0;entryY=1;entryDx=0;entryDy=0;" edge="1" parent="1" target="LzdCk226pAoBaQE-RJNd-8">
          <mxGeometry width="50" height="50" relative="1" as="geometry">
            <mxPoint x="210" y="360" as="sourcePoint" />
            <mxPoint x="292" y="430" as="targetPoint" />
          </mxGeometry>
        </mxCell>
        <mxCell id="LzdCk226pAoBaQE-RJNd-10" value="" style="endArrow=none;html=1;rounded=0;entryX=1;entryY=1;entryDx=0;entryDy=0;" edge="1" parent="1" target="LzdCk226pAoBaQE-RJNd-8">
          <mxGeometry width="50" height="50" relative="1" as="geometry">
            <mxPoint x="350" y="360" as="sourcePoint" />
            <mxPoint x="285" y="297" as="targetPoint" />
          </mxGeometry>
        </mxCell>
        <mxCell id="LzdCk226pAoBaQE-RJNd-11" value="" style="ellipse;whiteSpace=wrap;html=1;aspect=fixed;strokeColor=#3333FF;fillColor=#0000FF;" vertex="1" parent="1">
          <mxGeometry x="201" y="360" width="20" height="20" as="geometry" />
        </mxCell>
        <mxCell id="LzdCk226pAoBaQE-RJNd-12" value="" style="endArrow=none;html=1;rounded=0;entryX=0;entryY=1;entryDx=0;entryDy=0;" edge="1" parent="1" target="LzdCk226pAoBaQE-RJNd-11" source="LzdCk226pAoBaQE-RJNd-25">
          <mxGeometry width="50" height="50" relative="1" as="geometry">
            <mxPoint x="170" y="450" as="sourcePoint" />
            <mxPoint x="221" y="520" as="targetPoint" />
          </mxGeometry>
        </mxCell>
        <mxCell id="LzdCk226pAoBaQE-RJNd-13" value="" style="endArrow=none;html=1;rounded=0;entryX=1;entryY=1;entryDx=0;entryDy=0;exitX=0.5;exitY=0;exitDx=0;exitDy=0;" edge="1" parent="1" target="LzdCk226pAoBaQE-RJNd-11" source="LzdCk226pAoBaQE-RJNd-27">
          <mxGeometry width="50" height="50" relative="1" as="geometry">
            <mxPoint x="250" y="450" as="sourcePoint" />
            <mxPoint x="214" y="387" as="targetPoint" />
          </mxGeometry>
        </mxCell>
        <mxCell id="LzdCk226pAoBaQE-RJNd-14" value="" style="ellipse;whiteSpace=wrap;html=1;aspect=fixed;strokeColor=#3333FF;fillColor=#0000FF;" vertex="1" parent="1">
          <mxGeometry x="343" y="360" width="20" height="20" as="geometry" />
        </mxCell>
        <mxCell id="LzdCk226pAoBaQE-RJNd-15" value="" style="endArrow=none;html=1;rounded=0;entryX=0;entryY=1;entryDx=0;entryDy=0;exitX=0.5;exitY=0;exitDx=0;exitDy=0;" edge="1" parent="1" target="LzdCk226pAoBaQE-RJNd-14" source="LzdCk226pAoBaQE-RJNd-30">
          <mxGeometry width="50" height="50" relative="1" as="geometry">
            <mxPoint x="310" y="450" as="sourcePoint" />
            <mxPoint x="363" y="520" as="targetPoint" />
          </mxGeometry>
        </mxCell>
        <mxCell id="LzdCk226pAoBaQE-RJNd-16" value="" style="endArrow=none;html=1;rounded=0;entryX=1;entryY=1;entryDx=0;entryDy=0;exitX=0.5;exitY=0;exitDx=0;exitDy=0;" edge="1" parent="1" target="LzdCk226pAoBaQE-RJNd-14" source="LzdCk226pAoBaQE-RJNd-31">
          <mxGeometry width="50" height="50" relative="1" as="geometry">
            <mxPoint x="400" y="450" as="sourcePoint" />
            <mxPoint x="356" y="387" as="targetPoint" />
          </mxGeometry>
        </mxCell>
        <mxCell id="LzdCk226pAoBaQE-RJNd-17" value="" style="endArrow=none;html=1;rounded=0;entryX=0;entryY=1;entryDx=0;entryDy=0;exitX=0.45;exitY=0;exitDx=0;exitDy=0;exitPerimeter=0;" edge="1" parent="1" source="LzdCk226pAoBaQE-RJNd-19" target="LzdCk226pAoBaQE-RJNd-6">
          <mxGeometry width="50" height="50" relative="1" as="geometry">
            <mxPoint x="540" y="361.5" as="sourcePoint" />
            <mxPoint x="605" y="288.5" as="targetPoint" />
          </mxGeometry>
        </mxCell>
        <mxCell id="LzdCk226pAoBaQE-RJNd-18" value="" style="endArrow=none;html=1;rounded=0;entryX=1;entryY=1;entryDx=0;entryDy=0;" edge="1" parent="1" target="LzdCk226pAoBaQE-RJNd-6">
          <mxGeometry width="50" height="50" relative="1" as="geometry">
            <mxPoint x="680" y="361.5" as="sourcePoint" />
            <mxPoint x="619" y="288.5" as="targetPoint" />
          </mxGeometry>
        </mxCell>
        <mxCell id="LzdCk226pAoBaQE-RJNd-19" value="" style="ellipse;whiteSpace=wrap;html=1;aspect=fixed;strokeColor=#3333FF;fillColor=#0000FF;" vertex="1" parent="1">
          <mxGeometry x="531" y="361.5" width="20" height="20" as="geometry" />
        </mxCell>
        <mxCell id="LzdCk226pAoBaQE-RJNd-20" value="" style="endArrow=none;html=1;rounded=0;entryX=0;entryY=1;entryDx=0;entryDy=0;" edge="1" parent="1" target="LzdCk226pAoBaQE-RJNd-19">
          <mxGeometry width="50" height="50" relative="1" as="geometry">
            <mxPoint x="500" y="451.5" as="sourcePoint" />
            <mxPoint x="551" y="521.5" as="targetPoint" />
          </mxGeometry>
        </mxCell>
        <mxCell id="LzdCk226pAoBaQE-RJNd-21" value="" style="endArrow=none;html=1;rounded=0;entryX=1;entryY=1;entryDx=0;entryDy=0;" edge="1" parent="1" target="LzdCk226pAoBaQE-RJNd-19">
          <mxGeometry width="50" height="50" relative="1" as="geometry">
            <mxPoint x="580" y="451.5" as="sourcePoint" />
            <mxPoint x="544" y="388.5" as="targetPoint" />
          </mxGeometry>
        </mxCell>
        <mxCell id="LzdCk226pAoBaQE-RJNd-22" value="" style="ellipse;whiteSpace=wrap;html=1;aspect=fixed;strokeColor=#3333FF;fillColor=#0000FF;" vertex="1" parent="1">
          <mxGeometry x="673" y="361.5" width="20" height="20" as="geometry" />
        </mxCell>
        <mxCell id="LzdCk226pAoBaQE-RJNd-23" value="" style="endArrow=none;html=1;rounded=0;entryX=0;entryY=1;entryDx=0;entryDy=0;" edge="1" parent="1" target="LzdCk226pAoBaQE-RJNd-22">
          <mxGeometry width="50" height="50" relative="1" as="geometry">
            <mxPoint x="640" y="451.5" as="sourcePoint" />
            <mxPoint x="693" y="521.5" as="targetPoint" />
          </mxGeometry>
        </mxCell>
        <mxCell id="LzdCk226pAoBaQE-RJNd-24" value="" style="endArrow=none;html=1;rounded=0;entryX=1;entryY=1;entryDx=0;entryDy=0;" edge="1" parent="1" target="LzdCk226pAoBaQE-RJNd-22">
          <mxGeometry width="50" height="50" relative="1" as="geometry">
            <mxPoint x="730" y="451.5" as="sourcePoint" />
            <mxPoint x="686" y="388.5" as="targetPoint" />
          </mxGeometry>
        </mxCell>
        <mxCell id="LzdCk226pAoBaQE-RJNd-25" value="" style="ellipse;whiteSpace=wrap;html=1;aspect=fixed;strokeColor=#3333FF;fillColor=#0000FF;" vertex="1" parent="1">
          <mxGeometry x="160" y="450" width="20" height="20" as="geometry" />
        </mxCell>
        <mxCell id="LzdCk226pAoBaQE-RJNd-27" value="" style="ellipse;whiteSpace=wrap;html=1;aspect=fixed;strokeColor=#3333FF;fillColor=#0000FF;" vertex="1" parent="1">
          <mxGeometry x="240" y="450" width="20" height="20" as="geometry" />
        </mxCell>
        <mxCell id="LzdCk226pAoBaQE-RJNd-30" value="" style="ellipse;whiteSpace=wrap;html=1;aspect=fixed;strokeColor=#3333FF;fillColor=#0000FF;" vertex="1" parent="1">
          <mxGeometry x="300" y="450" width="20" height="20" as="geometry" />
        </mxCell>
        <mxCell id="LzdCk226pAoBaQE-RJNd-31" value="" style="ellipse;whiteSpace=wrap;html=1;aspect=fixed;strokeColor=#3333FF;fillColor=#0000FF;" vertex="1" parent="1">
          <mxGeometry x="390" y="450" width="20" height="20" as="geometry" />
        </mxCell>
        <mxCell id="LzdCk226pAoBaQE-RJNd-33" value="" style="ellipse;whiteSpace=wrap;html=1;aspect=fixed;strokeColor=#3333FF;fillColor=#0000FF;" vertex="1" parent="1">
          <mxGeometry x="490" y="450" width="20" height="20" as="geometry" />
        </mxCell>
        <mxCell id="LzdCk226pAoBaQE-RJNd-34" value="" style="ellipse;whiteSpace=wrap;html=1;aspect=fixed;strokeColor=#3333FF;fillColor=#0000FF;" vertex="1" parent="1">
          <mxGeometry x="570" y="450" width="20" height="20" as="geometry" />
        </mxCell>
        <mxCell id="LzdCk226pAoBaQE-RJNd-35" value="" style="ellipse;whiteSpace=wrap;html=1;aspect=fixed;strokeColor=#3333FF;fillColor=#0000FF;" vertex="1" parent="1">
          <mxGeometry x="630" y="450" width="20" height="20" as="geometry" />
        </mxCell>
        <mxCell id="LzdCk226pAoBaQE-RJNd-36" value="" style="ellipse;whiteSpace=wrap;html=1;aspect=fixed;strokeColor=#3333FF;fillColor=#0000FF;" vertex="1" parent="1">
          <mxGeometry x="720" y="450" width="20" height="20" as="geometry" />
        </mxCell>
        <mxCell id="LzdCk226pAoBaQE-RJNd-38" value="&lt;font color=&quot;#00cc66&quot;&gt;&lt;b&gt;what&lt;/b&gt;&lt;/font&gt;" style="text;html=1;strokeColor=none;fillColor=none;align=center;verticalAlign=middle;whiteSpace=wrap;rounded=0;" vertex="1" parent="1">
          <mxGeometry x="140" y="470" width="60" height="30" as="geometry" />
        </mxCell>
        <mxCell id="LzdCk226pAoBaQE-RJNd-40" value="&lt;font color=&quot;#00cc66&quot;&gt;&lt;b&gt;I&#39;m&lt;/b&gt;&lt;/font&gt;" style="text;html=1;strokeColor=none;fillColor=none;align=center;verticalAlign=middle;whiteSpace=wrap;rounded=0;" vertex="1" parent="1">
          <mxGeometry x="220" y="470" width="60" height="30" as="geometry" />
        </mxCell>
        <mxCell id="LzdCk226pAoBaQE-RJNd-41" value="&lt;font color=&quot;#00cc66&quot;&gt;&lt;b&gt;yes&lt;/b&gt;&lt;/font&gt;" style="text;html=1;strokeColor=none;fillColor=none;align=center;verticalAlign=middle;whiteSpace=wrap;rounded=0;" vertex="1" parent="1">
          <mxGeometry x="550" y="470" width="60" height="30" as="geometry" />
        </mxCell>
        <mxCell id="LzdCk226pAoBaQE-RJNd-42" value="&lt;font color=&quot;#00cc66&quot;&gt;&lt;b&gt;no&lt;/b&gt;&lt;/font&gt;" style="text;html=1;strokeColor=none;fillColor=none;align=center;verticalAlign=middle;whiteSpace=wrap;rounded=0;" vertex="1" parent="1">
          <mxGeometry x="471" y="470" width="60" height="30" as="geometry" />
        </mxCell>
        <mxCell id="LzdCk226pAoBaQE-RJNd-43" value="&lt;font color=&quot;#00cc66&quot;&gt;&lt;b&gt;sup&lt;/b&gt;&lt;/font&gt;" style="text;html=1;strokeColor=none;fillColor=none;align=center;verticalAlign=middle;whiteSpace=wrap;rounded=0;" vertex="1" parent="1">
          <mxGeometry x="700" y="470" width="60" height="30" as="geometry" />
        </mxCell>
        <mxCell id="LzdCk226pAoBaQE-RJNd-44" value="&lt;font color=&quot;#00cc66&quot;&gt;&lt;b&gt;why&lt;/b&gt;&lt;/font&gt;" style="text;html=1;strokeColor=none;fillColor=none;align=center;verticalAlign=middle;whiteSpace=wrap;rounded=0;" vertex="1" parent="1">
          <mxGeometry x="610" y="470" width="60" height="30" as="geometry" />
        </mxCell>
        <mxCell id="LzdCk226pAoBaQE-RJNd-45" value="&lt;font color=&quot;#00cc66&quot;&gt;&lt;b&gt;horse&lt;/b&gt;&lt;/font&gt;" style="text;html=1;strokeColor=none;fillColor=none;align=center;verticalAlign=middle;whiteSpace=wrap;rounded=0;" vertex="1" parent="1">
          <mxGeometry x="280" y="470" width="60" height="30" as="geometry" />
        </mxCell>
        <mxCell id="LzdCk226pAoBaQE-RJNd-46" value="&lt;font color=&quot;#00cc66&quot;&gt;&lt;b&gt;huh&lt;/b&gt;&lt;/font&gt;" style="text;html=1;strokeColor=none;fillColor=none;align=center;verticalAlign=middle;whiteSpace=wrap;rounded=0;" vertex="1" parent="1">
          <mxGeometry x="370" y="470" width="60" height="30" as="geometry" />
        </mxCell>
        <mxCell id="LzdCk226pAoBaQE-RJNd-47" value="0.52" style="text;html=1;strokeColor=none;fillColor=none;align=center;verticalAlign=middle;whiteSpace=wrap;rounded=0;rotation=0;" vertex="1" parent="1">
          <mxGeometry x="320" y="200" width="60" height="30" as="geometry" />
        </mxCell>
        <mxCell id="LzdCk226pAoBaQE-RJNd-48" value="0.48" style="text;html=1;strokeColor=none;fillColor=none;align=center;verticalAlign=middle;whiteSpace=wrap;rounded=0;rotation=0;" vertex="1" parent="1">
          <mxGeometry x="500" y="200" width="60" height="30" as="geometry" />
        </mxCell>
        <mxCell id="LzdCk226pAoBaQE-RJNd-49" value="0.27" style="text;html=1;strokeColor=none;fillColor=none;align=center;verticalAlign=middle;whiteSpace=wrap;rounded=0;rotation=0;" vertex="1" parent="1">
          <mxGeometry x="190" y="300" width="60" height="30" as="geometry" />
        </mxCell>
        <mxCell id="LzdCk226pAoBaQE-RJNd-50" value="0.73" style="text;html=1;strokeColor=none;fillColor=none;align=center;verticalAlign=middle;whiteSpace=wrap;rounded=0;rotation=0;" vertex="1" parent="1">
          <mxGeometry x="310" y="300" width="60" height="30" as="geometry" />
        </mxCell>
        <mxCell id="LzdCk226pAoBaQE-RJNd-51" value="0.36" style="text;html=1;strokeColor=none;fillColor=none;align=center;verticalAlign=middle;whiteSpace=wrap;rounded=0;rotation=0;" vertex="1" parent="1">
          <mxGeometry x="140" y="400" width="60" height="30" as="geometry" />
        </mxCell>
        <mxCell id="LzdCk226pAoBaQE-RJNd-52" value="0.64" style="text;html=1;strokeColor=none;fillColor=none;align=center;verticalAlign=middle;whiteSpace=wrap;rounded=0;rotation=0;" vertex="1" parent="1">
          <mxGeometry x="232" y="400" width="60" height="30" as="geometry" />
        </mxCell>
        <mxCell id="LzdCk226pAoBaQE-RJNd-53" value="0.81" style="text;html=1;strokeColor=none;fillColor=none;align=center;verticalAlign=middle;whiteSpace=wrap;rounded=0;rotation=0;" vertex="1" parent="1">
          <mxGeometry x="280" y="400" width="60" height="30" as="geometry" />
        </mxCell>
        <mxCell id="LzdCk226pAoBaQE-RJNd-54" value="0.19" style="text;html=1;strokeColor=none;fillColor=none;align=center;verticalAlign=middle;whiteSpace=wrap;rounded=0;rotation=0;" vertex="1" parent="1">
          <mxGeometry x="370" y="400" width="60" height="30" as="geometry" />
        </mxCell>
        <mxCell id="LzdCk226pAoBaQE-RJNd-55" value="0.22" style="text;html=1;strokeColor=none;fillColor=none;align=center;verticalAlign=middle;whiteSpace=wrap;rounded=0;rotation=0;" vertex="1" parent="1">
          <mxGeometry x="551" y="400" width="60" height="30" as="geometry" />
        </mxCell>
        <mxCell id="LzdCk226pAoBaQE-RJNd-56" value="0.78" style="text;html=1;strokeColor=none;fillColor=none;align=center;verticalAlign=middle;whiteSpace=wrap;rounded=0;rotation=0;" vertex="1" parent="1">
          <mxGeometry x="470" y="400" width="60" height="30" as="geometry" />
        </mxCell>
        <mxCell id="LzdCk226pAoBaQE-RJNd-57" value="0.57" style="text;html=1;strokeColor=none;fillColor=none;align=center;verticalAlign=middle;whiteSpace=wrap;rounded=0;rotation=0;" vertex="1" parent="1">
          <mxGeometry x="612.5" y="400" width="60" height="30" as="geometry" />
        </mxCell>
        <mxCell id="LzdCk226pAoBaQE-RJNd-58" value="0.43" style="text;html=1;strokeColor=none;fillColor=none;align=center;verticalAlign=middle;whiteSpace=wrap;rounded=0;rotation=0;" vertex="1" parent="1">
          <mxGeometry x="693.5" y="400" width="60" height="30" as="geometry" />
        </mxCell>
        <mxCell id="LzdCk226pAoBaQE-RJNd-59" value="0.28" style="text;html=1;strokeColor=none;fillColor=none;align=center;verticalAlign=middle;whiteSpace=wrap;rounded=0;rotation=0;" vertex="1" parent="1">
          <mxGeometry x="640" y="300" width="60" height="30" as="geometry" />
        </mxCell>
        <mxCell id="LzdCk226pAoBaQE-RJNd-60" value="0.72" style="text;html=1;strokeColor=none;fillColor=none;align=center;verticalAlign=middle;whiteSpace=wrap;rounded=0;rotation=0;" vertex="1" parent="1">
          <mxGeometry x="520" y="300" width="60" height="30" as="geometry" />
        </mxCell>
      </root>
    </mxGraphModel>
  </diagram>
</mxfile>
